<svg id="visual" viewBox="0 0 900 600" width="900" height="600" xmlns="http://www.w3.org/2000/svg" xmlns:xlink="http://www.w3.org/1999/xlink" version="1.1"><path d="M0 445L25 434.2C50 423.3 100 401.7 150 409.8C200 418 250 456 300 467.7C350 479.3 400 464.7 450 445.3C500 426 550 402 600 393.5C650 385 700 392 750 415.5C800 439 850 479 875 499L900 519L900 601L875 601C850 601 800 601 750 601C700 601 650 601 600 601C550 601 500 601 450 601C400 601 350 601 300 601C250 601 200 601 150 601C100 601 50 601 25 601L0 601Z" fill="#2DD4BF" stroke-linecap="round" stroke-linejoin="miter"></path></svg>