<svg id="visual" viewBox="0 0 400 800" width="400" height="800" xmlns="http://www.w3.org/2000/svg" xmlns:xlink="http://www.w3.org/1999/xlink" version="1.1"><rect x="0" y="0" width="400" height="800" fill="#F8FAFC"></rect><defs><linearGradient id="grad1_0" x1="0%" y1="0%" x2="100%" y2="100%"><stop offset="30%" stop-color="#f8fafc" stop-opacity="1"></stop><stop offset="70%" stop-color="#f8fafc" stop-opacity="1"></stop></linearGradient></defs><defs><linearGradient id="grad2_0" x1="0%" y1="0%" x2="100%" y2="100%"><stop offset="30%" stop-color="#f8fafc" stop-opacity="1"></stop><stop offset="70%" stop-color="#f8fafc" stop-opacity="1"></stop></linearGradient></defs><g transform="translate(400, 0)"><path d="M0 340C-35 330.2 -70.1 320.5 -97.6 300.5C-125.2 280.6 -145.3 250.5 -165.2 227.3C-185.1 204.2 -204.9 188.1 -234.6 170.5C-264.4 152.8 -304.1 133.7 -323.4 105.1C-342.6 76.4 -341.3 38.2 -340 0L0 0Z" fill="#c7c1ed"></path></g><g transform="translate(0, 800)"><path d="M0 -340C36.4 -338.8 72.7 -337.5 105.1 -323.4C137.4 -309.2 165.8 -282.2 183.4 -252.4C201 -222.7 207.8 -190.2 228.1 -165.8C248.5 -141.3 282.5 -124.9 303.4 -98.6C324.3 -72.3 332.1 -36.1 340 0L0 0Z" fill="#c7c1ed"></path></g></svg>